<?xml version="1.0" encoding="utf-8"?>
<!-- Generator: Adobe Illustrator 16.0.0, SVG Export Plug-In . SVG Version: 6.00 Build 0)  -->
<!DOCTYPE svg PUBLIC "-//W3C//DTD SVG 1.1//EN" "http://www.w3.org/Graphics/SVG/1.1/DTD/svg11.dtd">
<svg version="1.1" id="Capa_1" xmlns="http://www.w3.org/2000/svg" xmlns:xlink="http://www.w3.org/1999/xlink" x="0px" y="0px"
	 width="198px" height="76px" viewBox="0 0 198 76" enable-background="new 0 0 198 76" xml:space="preserve">
<path fill-rule="evenodd" clip-rule="evenodd" fill="#252A69" d="M42.744,22.679h23.299c-2.584-4.47-6.226-8.246-10.592-10.986
	c-0.979-0.133-1.963-0.137-2.913-0.055c-0.311,0.065-8.084,1.755-12.856,8.222C40.789,20.711,41.812,21.654,42.744,22.679z"/>
<linearGradient id="SVGID_1_" gradientUnits="userSpaceOnUse" x1="31.4644" y1="39.9727" x2="31.4644" y2="61.1077">
	<stop  offset="0" style="stop-color:#A08631"/>
	<stop  offset="0.5" style="stop-color:#FAD774"/>
	<stop  offset="1" style="stop-color:#A08631"/>
</linearGradient>
<path fill-rule="evenodd" clip-rule="evenodd" fill="url(#SVGID_1_)" d="M50.951,65.606L50.951,65.606
	c-1.625-0.315-3.134-0.855-4.516-1.515c-0.944-0.501-1.863-1.047-2.742-1.642c-0.041-0.026-0.078-0.054-0.116-0.08
	c-0.414-0.283-0.821-0.576-1.22-0.879c-0.055-0.044-0.113-0.086-0.171-0.13c-0.849-0.655-1.66-1.354-2.431-2.097
	c-0.093-0.09-0.183-0.182-0.276-0.273c-0.286-0.281-0.565-0.567-0.836-0.86c-0.098-0.105-0.198-0.21-0.296-0.317
	c-0.348-0.383-0.686-0.772-1.013-1.173c-2.491-3.064-4.365-6.634-5.43-10.526H8.029C11.453,59.861,23.875,70.05,38.68,70.05
	c5.151,0,10.008-1.24,14.302-3.426c0.651-0.331,1.292-0.68,1.917-1.054C53.419,65.801,52.062,65.752,50.951,65.606z"/>
<path fill-rule="evenodd" clip-rule="evenodd" fill="#252A69" d="M132.952,31.575c-1.395,0-2.326-0.066-3.062-0.217V18.938
	c0.52-0.126,1.72-0.34,3.829-0.34c4.715,0,7.417,2.236,7.417,6.135C141.137,29.017,138.077,31.575,132.952,31.575L132.952,31.575z
	 M146.521,14.333c-2.779-2.225-6.821-3.369-12.326-3.489l0.024-0.012h-8.725c-3.134,0-5.677,2.542-5.677,5.678v38.195h4.24
	c3.22,0,5.832-2.61,5.832-5.83v-9.569c0.854,0.107,1.929,0.163,3.127,0.163c6.066,0,10.965-1.59,14.156-4.601
	c2.603-2.47,4.034-6.16,4.034-10.39C151.208,20.385,149.5,16.688,146.521,14.333z"/>
<path fill-rule="evenodd" clip-rule="evenodd" fill="#252A69" d="M177.289,43.477c-2.448,2.425-5.93,3.654-10.352,3.654l0,0h-0.167
	c-1.119,0-2.374,0-3.196-0.154V19.071c0.778-0.164,2.11-0.344,4.214-0.344c4.193,0,7.623,1.222,9.922,3.533
	c2.315,2.339,3.482,5.691,3.447,9.965C181.157,37.136,179.859,40.921,177.289,43.477L177.289,43.477z M184.552,15.482
	c-4.263-3.215-9.746-4.649-17.781-4.649c-2.633,0-5.185,0.09-7.594,0.266c-3.252,0.239-5.801,2.983-5.801,6.247v37.143l0.175,0.023
	c3.24,0.425,6.978,0.642,11.104,0.642c8.809,0,15.555-1.89,20.037-5.617c3.308-2.796,7.246-8.124,7.246-17.631
	C191.938,24.645,189.456,19.119,184.552,15.482z"/>
<path fill-rule="evenodd" clip-rule="evenodd" fill="#252A69" d="M70.85,57.345c-0.098,0.147-0.186,0.296-0.271,0.445l-6.754,10.087
	h6.384c3.941,0,7.612-1.999,9.753-5.309l15.468-23.5l7.052,11.002c1.826,2.852,4.979,4.576,8.366,4.576h7.169l-15.191-23.075
	l13.59-20.797h-6.422c-3.86,0-7.459,1.944-9.576,5.171l-4.988,7.699l-5.806-8.735c-1.721-2.586-4.622-4.14-7.726-4.14h-7.67
	l13.881,20.802L70.85,57.345z"/>
<path fill-rule="evenodd" clip-rule="evenodd" fill="#252A69" d="M66.316,42.658c-1.077,0.187-2.089,0.242-2.911,0.242
	c-1.148,0-1.922-0.108-1.977-0.116l-0.896-0.129l0.039-0.906c0.159-3.621-0.811-6.531-2.882-8.65
	c-3.758-3.844-9.996-4.005-10.835-4.009c1.116,2.639,1.736,5.52,1.736,8.542c0,7.478-3.76,14.115-9.571,18.274l-0.01,0.007
	c4.357,7.4,11.939,9.692,11.942,9.693c1.11,0.146,2.468,0.194,3.948-0.036c8.123-4.87,13.876-13.286,15.117-23.109
	c0-0.034-0.007-0.397-0.093-0.99C68.875,42.023,67.667,42.424,66.316,42.658z"/>
<path fill-rule="evenodd" clip-rule="evenodd" fill="#252A69" d="M62.592,40.874c1.472,0.073,4.508,0.003,6.859-1.454
	c-1.103-3.528-4.359-9.033-14-10.421h-0.146c1.347,0.653,2.67,1.527,3.818,2.701C61.404,34.034,62.569,37.117,62.592,40.874z"/>
<linearGradient id="SVGID_2_" gradientUnits="userSpaceOnUse" x1="25.5239" y1="8.2754" x2="25.3131" y2="36.3103">
	<stop  offset="0" style="stop-color:#A08631"/>
	<stop  offset="0.5" style="stop-color:#FAD774"/>
	<stop  offset="1" style="stop-color:#A08631"/>
</linearGradient>
<path fill-rule="evenodd" clip-rule="evenodd" fill="url(#SVGID_2_)" d="M32.629,27.568c-2.368-1.847-5.962-2.698-7.57-3.003
	c-1.803,5.549-4.523,8.912-6.992,10.941C21.674,34.561,27.951,32.333,32.629,27.568z"/>
<linearGradient id="SVGID_3_" gradientUnits="userSpaceOnUse" x1="31.4355" y1="8.2964" x2="31.2245" y2="36.3569">
	<stop  offset="0" style="stop-color:#A08631"/>
	<stop  offset="0.5" style="stop-color:#FAD774"/>
	<stop  offset="1" style="stop-color:#A08631"/>
</linearGradient>
<path fill-rule="evenodd" clip-rule="evenodd" fill="url(#SVGID_3_)" d="M53.354,10.485C48.969,8.18,43.979,6.868,38.68,6.868
	c-16.659,0-30.297,12.901-31.495,29.255H9.28c2.29-0.133,5.985-0.752,8.622-3.188l-0.035,0.069c2.02-1.993,4.124-5.084,5.536-9.855
	l0.243-0.817l0.846,0.109c0.297,0.038,5.767,0.777,9.338,3.542c0.962-1.927,2.137-3.739,3.503-5.419c0,0,3.637-5.144,9.167-7.367
	c1.368-0.576,3.589-1.349,6.037-1.56c0.95-0.082,1.934-0.078,2.913,0.055C54.769,11.264,54.071,10.861,53.354,10.485z"/>
<polygon fill-rule="evenodd" clip-rule="evenodd" fill="#A2842F" points="84.799,60.907 88.807,60.907 88.807,62.269 86.474,62.269 
	86.474,63.426 88.668,63.426 88.668,64.778 86.474,64.778 86.474,67.148 84.799,67.148 "/>
<path fill-rule="evenodd" clip-rule="evenodd" fill="#A2842F" d="M92.291,64.463l-0.289-1.12c-0.093-0.352-0.214-0.861-0.304-1.231
	h-0.02c-0.093,0.37-0.186,0.889-0.276,1.241l-0.27,1.11H92.291L92.291,64.463z M90.909,65.704l-0.351,1.444h-1.731l1.813-6.241
	h2.223l1.861,6.241h-1.806l-0.397-1.444H90.909z"/>
<path fill-rule="evenodd" clip-rule="evenodd" fill="#A2842F" d="M99.928,66.991c-0.24,0.111-0.823,0.26-1.575,0.26
	c-2.333,0-3.361-1.463-3.361-3.121c0-2.203,1.611-3.324,3.471-3.324c0.724,0,1.306,0.14,1.565,0.278l-0.323,1.314
	c-0.276-0.111-0.656-0.223-1.158-0.223c-0.962,0-1.795,0.565-1.795,1.843c0,1.14,0.675,1.843,1.823,1.843
	c0.41,0,0.861-0.083,1.123-0.185L99.928,66.991z"/>
<polygon fill-rule="evenodd" clip-rule="evenodd" fill="#A2842F" points="102.11,62.306 100.518,62.306 100.518,60.907 
	105.407,60.907 105.407,62.306 103.788,62.306 103.788,67.148 102.11,67.148 "/>
<path fill-rule="evenodd" clip-rule="evenodd" fill="#A2842F" d="M107.842,60.907v3.538c0,0.944,0.323,1.48,0.981,1.48
	c0.669,0,0.992-0.49,0.992-1.48v-3.538h1.675v3.445c0,1.926-0.964,2.898-2.711,2.898c-1.714,0-2.612-0.936-2.612-2.944v-3.399
	H107.842z"/>
<path fill-rule="evenodd" clip-rule="evenodd" fill="#A2842F" d="M114.286,63.611h0.435c0.631,0,0.992-0.314,0.992-0.778
	c0-0.472-0.307-0.731-0.861-0.74c-0.316,0-0.482,0.019-0.565,0.037V63.611L114.286,63.611z M112.629,60.991
	c0.472-0.074,1.186-0.13,2.019-0.13c0.952,0,1.638,0.13,2.11,0.481c0.398,0.306,0.62,0.75,0.62,1.361
	c0,0.777-0.583,1.333-1.072,1.509v0.037c0.417,0.176,0.638,0.574,0.796,1.111c0.193,0.639,0.397,1.547,0.518,1.787h-1.713
	c-0.093-0.185-0.249-0.666-0.435-1.435c-0.168-0.751-0.399-0.908-0.917-0.908h-0.269v2.343h-1.657V60.991z"/>
<path fill-rule="evenodd" clip-rule="evenodd" fill="#A2842F" d="M121.451,64.463l-0.286-1.12c-0.093-0.352-0.213-0.861-0.306-1.231
	h-0.019c-0.092,0.37-0.186,0.889-0.278,1.241l-0.269,1.11H121.451L121.451,64.463z M120.073,65.704l-0.352,1.444h-1.733l1.815-6.241
	h2.224l1.86,6.241h-1.806l-0.399-1.444H120.073z"/>
<polygon fill-rule="evenodd" clip-rule="evenodd" fill="#252A69" points="126.515,60.907 130.525,60.907 130.525,62.269 
	128.193,62.269 128.193,63.426 130.385,63.426 130.385,64.778 128.193,64.778 128.193,67.148 126.515,67.148 "/>
<path fill-rule="evenodd" clip-rule="evenodd" fill="#252A69" d="M134.007,64.463l-0.289-1.12c-0.091-0.352-0.211-0.861-0.304-1.231
	h-0.021c-0.093,0.37-0.183,0.889-0.276,1.241l-0.268,1.11H134.007L134.007,64.463z M135.199,59.407l-1.109,1.167h-1.334l0.751-1.167
	H135.199L135.199,59.407z M132.625,65.704l-0.352,1.444h-1.73l1.813-6.241h2.223l1.861,6.241h-1.806l-0.396-1.444H132.625z"/>
<path fill-rule="evenodd" clip-rule="evenodd" fill="#252A69" d="M141.645,66.991c-0.241,0.111-0.824,0.26-1.575,0.26
	c-2.333,0-3.36-1.463-3.36-3.121c0-2.203,1.609-3.324,3.472-3.324c0.723,0,1.305,0.14,1.566,0.278l-0.326,1.314
	c-0.276-0.111-0.655-0.223-1.155-0.223c-0.965,0-1.799,0.565-1.799,1.843c0,1.14,0.679,1.843,1.826,1.843
	c0.406,0,0.862-0.083,1.121-0.185L141.645,66.991z"/>
<rect x="142.541" y="60.907" fill-rule="evenodd" clip-rule="evenodd" fill="#252A69" width="1.678" height="6.241"/>
<polygon fill-rule="evenodd" clip-rule="evenodd" fill="#252A69" points="145.363,60.907 147.041,60.907 147.041,65.75 
	149.44,65.75 149.44,67.148 145.363,67.148 "/>
<path fill-rule="evenodd" clip-rule="evenodd" fill="#252A69" d="M153.196,67.148V64.63l-1.971-3.723h1.917l0.526,1.407
	c0.176,0.436,0.289,0.751,0.427,1.148h0.019c0.12-0.38,0.251-0.722,0.398-1.148l0.518-1.407h1.881l-2.046,3.658v2.583H153.196z"/>
<path fill-rule="evenodd" clip-rule="evenodd" fill="#252A69" d="M161.048,63.611h0.436c0.63,0,0.991-0.314,0.991-0.778
	c0-0.472-0.307-0.731-0.861-0.74c-0.313,0-0.482,0.019-0.565,0.037V63.611L161.048,63.611z M159.391,60.991
	c0.472-0.074,1.186-0.13,2.02-0.13c0.953,0,1.64,0.13,2.111,0.481c0.397,0.306,0.62,0.75,0.62,1.361
	c0,0.777-0.584,1.333-1.074,1.509v0.037c0.416,0.176,0.638,0.574,0.797,1.111c0.192,0.639,0.398,1.547,0.519,1.787h-1.715
	c-0.09-0.185-0.248-0.666-0.434-1.435c-0.166-0.751-0.398-0.908-0.917-0.908h-0.27v2.343h-1.657V60.991z"/>
<path fill-rule="evenodd" clip-rule="evenodd" fill="#252A69" d="M168.21,64.463l-0.281-1.12c-0.097-0.352-0.219-0.861-0.307-1.231
	h-0.018c-0.097,0.37-0.185,0.889-0.281,1.241l-0.263,1.11H168.21L168.21,64.463z M169.411,59.407l-1.114,1.167h-1.333l0.746-1.167
	H169.411L169.411,59.407z M166.832,65.704l-0.351,1.444h-1.731l1.819-6.241h2.219l1.86,6.241h-1.808l-0.395-1.444H166.832z"/>
<path fill-rule="evenodd" clip-rule="evenodd" fill="#252A69" d="M173.104,63.75c0.088,0.01,0.201,0.019,0.377,0.019
	c0.658,0,1.07-0.333,1.07-0.87c0-0.463-0.324-0.778-0.947-0.778c-0.255,0-0.421,0.019-0.5,0.037V63.75L173.104,63.75z
	 M171.446,60.991c0.447-0.074,1.105-0.13,2.062-0.13c0.895,0,1.535,0.157,1.974,0.49c0.43,0.315,0.711,0.871,0.711,1.51
	c0,0.63-0.211,1.186-0.597,1.537c-0.509,0.453-1.246,0.648-2.088,0.648c-0.158,0-0.307-0.01-0.403-0.019v2.12h-1.658V60.991z"/>
<rect x="177.017" y="60.907" fill-rule="evenodd" clip-rule="evenodd" fill="#252A69" width="1.675" height="6.241"/>
<path fill-rule="evenodd" clip-rule="evenodd" fill="#252A69" d="M181.518,65.898c0.087,0.019,0.236,0.019,0.351,0.019
	c1.088,0.019,1.877-0.583,1.877-1.991c0-1.212-0.719-1.787-1.719-1.787c-0.272,0-0.422,0.019-0.509,0.037V65.898L181.518,65.898z
	 M179.842,60.991c0.535-0.084,1.254-0.13,1.991-0.13c1.193,0,1.947,0.194,2.562,0.62c0.692,0.473,1.132,1.25,1.132,2.398
	c0,1.269-0.483,2.093-1.088,2.564c-0.693,0.537-1.711,0.778-2.931,0.778c-0.807,0-1.342-0.055-1.666-0.11V60.991z"/>
<path fill-rule="evenodd" clip-rule="evenodd" fill="#252A69" d="M187.921,64.037c0,1.167,0.509,1.889,1.315,1.889
	c0.808,0,1.281-0.787,1.281-1.907c0-1.074-0.482-1.889-1.29-1.889C188.43,62.13,187.921,62.889,187.921,64.037L187.921,64.037z
	 M192.289,63.963c0,2.01-1.201,3.288-3.132,3.288c-1.938,0-3-1.454-3-3.187c0-1.814,1.193-3.259,3.097-3.259
	C191.264,60.806,192.289,62.297,192.289,63.963z"/>
</svg>
